<svg width="80" height="80" xmlns="http://www.w3.org/2000/svg">

 <g>
  <title>background</title>
  <rect fill="none" id="canvas_background" height="402" width="582" y="-1" x="-1"/>
 </g>
 <g>
  <title>Layer 1</title>
  <g id="svg_1">
   <path id="svg_2" d="m40,0c22.091,0 40,17.909 40,40s-17.909,40 -40,40s-40,-17.909 -40,-40s17.909,-40 40,-40z" fill="#FFFFFF"/>
  </g>
  <g id="svg_3">
   <path id="svg_4" d="m50.378,32.576c0,1.005 -0.815,1.821 -1.821,1.821c-1.005,0 -1.82,-0.816 -1.82,-1.821c0,-1.005 0.815,-1.821 1.82,-1.821c1.006,0 1.821,0.816 1.821,1.821zm4.249,-5.463c0,-0.341 -0.304,-0.607 -0.646,-0.607c-6.601,0 -10.223,1.518 -14.964,6.241c-1.081,1.1 -2.2,2.352 -3.338,3.699l-7.188,0.379c-0.19,0.019 -0.379,0.133 -0.493,0.304l-4.249,7.284c-0.133,0.228 -0.095,0.53 0.095,0.739l1.214,1.215c0.114,0.113 0.285,0.17 0.437,0.17c0.057,0 0.114,0 0.17,-0.02l5.235,-1.611l5.33,5.33l-1.612,5.236c-0.057,0.209 0,0.437 0.152,0.606l1.214,1.214c0.133,0.114 0.284,0.171 0.436,0.171c0.114,0 0.208,-0.021 0.304,-0.075l7.283,-4.25c0.171,-0.113 0.284,-0.304 0.305,-0.492l0.379,-7.19c1.347,-1.138 2.599,-2.257 3.699,-3.339c4.492,-4.514 6.237,-8.706 6.237,-15.004z" fill="#8cc9f0"/>
  </g>
  <rect stroke="#000" id="svg_5" height="33.880597" width="38.955224" y="23.500466" x="22.164179" stroke-width="1.5" fill="#000000"/>
  <ellipse stroke="#000" ry="39.925369" rx="39.104476" id="svg_6" cy="40.142254" cx="40.074624" fill-opacity="null" stroke-opacity="null" stroke-width="1.5" fill="#000000"/>
 </g>
</svg>